<svg xmlns="http://www.w3.org/2000/svg" xmlns:xlink="http://www.w3.org/1999/xlink" width="500" zoomAndPan="magnify" viewBox="0 0 375 374.999991" height="500" preserveAspectRatio="xMidYMid meet" version="1.0"><defs><g/></defs><g fill="#000000" fill-opacity="1"><g transform="translate(-2.469861, 212.561539)"><g><path d="M 1.203125 -7.453125 L 9.375 -18.390625 C 13.0625 -15.984375 16.546875 -14.195312 19.828125 -13.03125 C 23.109375 -11.875 26.394531 -11.296875 29.6875 -11.296875 C 33.363281 -11.296875 36.300781 -11.894531 38.5 -13.09375 C 40.707031 -14.300781 41.8125 -15.90625 41.8125 -17.90625 C 41.8125 -19.507812 41.191406 -20.789062 39.953125 -21.75 C 38.710938 -22.707031 36.734375 -23.390625 34.015625 -23.796875 L 21.984375 -25.59375 C 15.816406 -26.550781 11.109375 -28.550781 7.859375 -31.59375 C 4.617188 -34.644531 3 -38.695312 3 -43.75 C 3 -49.75 5.363281 -54.550781 10.09375 -58.15625 C 14.820312 -61.769531 21.148438 -63.578125 29.078125 -63.578125 C 33.648438 -63.578125 38.097656 -62.914062 42.421875 -61.59375 C 46.742188 -60.269531 50.867188 -58.328125 54.796875 -55.765625 L 46.859375 -45.1875 C 43.421875 -47.1875 40.140625 -48.6875 37.015625 -49.6875 C 33.890625 -50.6875 30.722656 -51.1875 27.515625 -51.1875 C 24.554688 -51.1875 22.175781 -50.625 20.375 -49.5 C 18.570312 -48.382812 17.671875 -46.90625 17.671875 -45.0625 C 17.671875 -43.382812 18.328125 -42.082031 19.640625 -41.15625 C 20.960938 -40.238281 23.148438 -39.578125 26.203125 -39.171875 L 38.21875 -37.375 C 44.300781 -36.488281 49.003906 -34.484375 52.328125 -31.359375 C 55.660156 -28.234375 57.328125 -24.269531 57.328125 -19.46875 C 57.328125 -16.5 56.625 -13.753906 55.21875 -11.234375 C 53.8125 -8.710938 51.90625 -6.53125 49.5 -4.6875 C 47.101562 -2.84375 44.222656 -1.398438 40.859375 -0.359375 C 37.492188 0.679688 33.847656 1.203125 29.921875 1.203125 C 24.234375 1.203125 18.90625 0.460938 13.9375 -1.015625 C 8.96875 -2.503906 4.722656 -4.648438 1.203125 -7.453125 Z M 1.203125 -7.453125 "/></g></g></g><g fill="#000000" fill-opacity="1"><g transform="translate(53.394645, 212.561539)"><g><path d="M 6.484375 0 L 6.484375 -62.609375 L 22.953125 -62.609375 L 22.953125 -57.6875 C 25.359375 -59.6875 28.019531 -61.207031 30.9375 -62.25 C 33.863281 -63.289062 37.050781 -63.8125 40.5 -63.8125 C 47.707031 -63.8125 53.632812 -61.488281 58.28125 -56.84375 C 62.925781 -52.195312 65.25 -46.226562 65.25 -38.9375 L 65.25 0 L 48.796875 0 L 48.796875 -36.53125 C 48.796875 -40.457031 47.613281 -43.617188 45.25 -46.015625 C 42.882812 -48.421875 39.738281 -49.625 35.8125 -49.625 C 33.082031 -49.625 30.613281 -49.082031 28.40625 -48 C 26.207031 -46.925781 24.390625 -45.382812 22.953125 -43.375 L 22.953125 0 Z M 6.484375 0 "/></g></g></g><g fill="#000000" fill-opacity="1"><g transform="translate(121.513498, 212.561539)"><g><path d="M 62.609375 -7.8125 C 58.765625 -4.6875 54.816406 -2.398438 50.765625 -0.953125 C 46.722656 0.484375 42.21875 1.203125 37.25 1.203125 C 32.519531 1.203125 28.09375 0.363281 23.96875 -1.3125 C 19.84375 -3 16.273438 -5.285156 13.265625 -8.171875 C 10.265625 -11.054688 7.90625 -14.476562 6.1875 -18.4375 C 4.46875 -22.40625 3.609375 -26.675781 3.609375 -31.25 C 3.609375 -35.726562 4.425781 -39.953125 6.0625 -43.921875 C 7.707031 -47.890625 9.972656 -51.332031 12.859375 -54.25 C 15.742188 -57.175781 19.164062 -59.476562 23.125 -61.15625 C 27.09375 -62.84375 31.320312 -63.6875 35.8125 -63.6875 C 40.21875 -63.6875 44.320312 -62.828125 48.125 -61.109375 C 51.9375 -59.390625 55.222656 -57.046875 57.984375 -54.078125 C 60.742188 -51.109375 62.90625 -47.5625 64.46875 -43.4375 C 66.03125 -39.3125 66.8125 -34.847656 66.8125 -30.046875 L 66.8125 -25.71875 L 20.1875 -25.71875 C 21.3125 -21.789062 23.472656 -18.625 26.671875 -16.21875 C 29.878906 -13.820312 33.644531 -12.625 37.96875 -12.625 C 40.695312 -12.625 43.257812 -13.0625 45.65625 -13.9375 C 48.0625 -14.820312 50.109375 -16.066406 51.796875 -17.671875 Z M 35.453125 -50.109375 C 31.679688 -50.109375 28.429688 -48.96875 25.703125 -46.6875 C 22.984375 -44.40625 21.101562 -41.34375 20.0625 -37.5 L 50.71875 -37.5 C 49.675781 -41.175781 47.769531 -44.195312 45 -46.5625 C 42.238281 -48.925781 39.054688 -50.109375 35.453125 -50.109375 Z M 35.453125 -50.109375 "/></g></g></g><g fill="#000000" fill-opacity="1"><g transform="translate(188.791347, 212.561539)"><g><path d="M 26.3125 1.078125 C 19.582031 1.078125 14.09375 -0.703125 9.84375 -4.265625 C 5.601562 -7.828125 3.484375 -12.453125 3.484375 -18.140625 C 3.484375 -24.066406 5.765625 -28.710938 10.328125 -32.078125 C 14.898438 -35.453125 21.191406 -37.140625 29.203125 -37.140625 C 31.765625 -37.140625 34.328125 -36.9375 36.890625 -36.53125 C 39.453125 -36.132812 41.976562 -35.535156 44.46875 -34.734375 L 44.46875 -39.171875 C 44.46875 -42.773438 43.34375 -45.5 41.09375 -47.34375 C 38.851562 -49.1875 35.570312 -50.109375 31.25 -50.109375 C 28.601562 -50.109375 25.738281 -49.6875 22.65625 -48.84375 C 19.570312 -48.007812 16.066406 -46.707031 12.140625 -44.9375 L 6.125 -57.078125 C 11.007812 -59.328125 15.753906 -61.007812 20.359375 -62.125 C 24.972656 -63.25 29.523438 -63.8125 34.015625 -63.8125 C 42.421875 -63.8125 48.96875 -61.785156 53.65625 -57.734375 C 58.34375 -53.691406 60.6875 -47.988281 60.6875 -40.625 L 60.6875 0 L 44.46875 0 L 44.46875 -4.328125 C 41.820312 -2.484375 39.035156 -1.117188 36.109375 -0.234375 C 33.179688 0.640625 29.914062 1.078125 26.3125 1.078125 Z M 19.234375 -18.5 C 19.234375 -16.101562 20.269531 -14.203125 22.34375 -12.796875 C 24.425781 -11.390625 27.191406 -10.6875 30.640625 -10.6875 C 33.367188 -10.6875 35.875 -11.023438 38.15625 -11.703125 C 40.4375 -12.390625 42.539062 -13.375 44.46875 -14.65625 L 44.46875 -24.03125 C 42.457031 -24.832031 40.347656 -25.410156 38.140625 -25.765625 C 35.941406 -26.128906 33.644531 -26.3125 31.25 -26.3125 C 27.476562 -26.3125 24.53125 -25.609375 22.40625 -24.203125 C 20.289062 -22.804688 19.234375 -20.90625 19.234375 -18.5 Z M 19.234375 -18.5 "/></g></g></g><g fill="#000000" fill-opacity="1"><g transform="translate(252.344857, 212.561539)"><g><path d="M 6.484375 0 L 6.484375 -84.125 L 22.953125 -87.71875 L 22.953125 -36.171875 L 49.984375 -62.609375 L 68.625 -62.609375 L 39.296875 -33.890625 L 70.421875 0 L 49.390625 0 L 22.953125 -28.59375 L 22.953125 0 Z M 6.484375 0 "/></g></g></g><g fill="#000000" fill-opacity="1"><g transform="translate(317.460192, 212.561539)"><g><path d="M 3.25 0 L 3.25 -11.65625 L 34.734375 -48.796875 L 3.484375 -48.796875 L 3.484375 -62.609375 L 55.875 -62.609375 L 55.875 -50.953125 L 24.15625 -13.8125 L 56.59375 -13.8125 L 56.59375 0 Z M 3.25 0 "/></g></g></g></svg>